<svg xmlns="http://www.w3.org/2000/svg" xmlns:xlink="http://www.w3.org/1999/xlink" width="780" height="780" viewBox="0 0 780 780"><defs><style>.a{clip-path:url(#b);}.b{fill:#333;}.c,.d{fill:#707070;font-family:AndaleMono, Andale Mono;}.c{font-size:192px;}.d{font-size:100px;}.e{fill:#fff;}</style><clipPath id="b"><rect width="780" height="780"/></clipPath></defs><g id="a" class="a"><rect class="e" width="780" height="780"/><path class="b" d="M624,416H381.54c-.74,19.81-14.71,32-32.74,32H288c-18.69,0-33.02-17.47-32.77-32H16A16.047,16.047,0,0,0,0,432v16a64.188,64.188,0,0,0,64,64H576a64.188,64.188,0,0,0,64-64V432A16.047,16.047,0,0,0,624,416ZM576,48A48.141,48.141,0,0,0,528,0H112A48.141,48.141,0,0,0,64,48V384H576ZM512,320H128V64H512Z" transform="translate(70 85)"/><text class="c" transform="translate(217 327)"><tspan x="0" y="0">{ }</tspan></text><text class="d" transform="translate(60 728)"><tspan x="0" y="0">Lane Garner</tspan></text></g></svg>