<svg xmlns="http://www.w3.org/2000/svg" xmlns:xlink="http://www.w3.org/1999/xlink" width="1110" height="619" viewBox="0 0 1110 619"><defs><clipPath id="b"><rect width="1110" height="619"/></clipPath></defs><g id="a" clip-path="url(#b)"><rect width="1110" height="619" fill="#fff"/><g transform="translate(194 -25)"><path d="M53.174-34.827H40.906v1.611c4.395.476,4.578,1.172,3.809,4.358-.806,3.406-3.809,13.77-6.152,21.021h-.11c-3.369-9.082-6.555-17.725-9.631-26.514H26.99C24.207-25.6,21.057-16.736,18.2-7.91h-.11c-2.417-7.361-4.541-14.5-6.665-21.533-.806-2.71-.806-3.3,3.3-3.772v-1.611H.842v1.611c3.369.4,4.211.989,5.6,5.42C9.485-18.457,12.6-9.082,15.527.586h1.9c2.856-8.533,5.933-17.175,8.972-26.294h.11C29.333-18.2,33.032-7.947,36.108.586h1.941C42.627-14.392,45.923-24.28,47.2-27.686c1.648-4.468,2.234-5.017,5.969-5.53ZM69.543-5.933a9.053,9.053,0,0,1-6.3,2.673c-3.772,0-7.837-2.93-7.947-9.851,6.3-.22,13.11-.769,14.1-.916.989-.22,1.282-.7,1.282-1.721a8.469,8.469,0,0,0-8.35-8.24h-.037a11.492,11.492,0,0,0-8.2,4.1A13.4,13.4,0,0,0,50.61-10.73C50.61-4.761,54.565.623,61.267.623c1.758,0,5.676-.952,9.192-5.383Zm-8.5-16.04c2.856,0,4.614,2.6,4.614,5.42,0,.7-.33.989-1.282,1.025-3.04.11-5.933.11-8.826.11.769-4.468,3.113-6.555,5.457-6.555Zm19.409.33V-38.086a50.327,50.327,0,0,1-8.313,1.868v1.282c3.406.33,3.589.7,3.589,4.065v29.59a20.639,20.639,0,0,0,8.313,1.9c7.4,0,13.879-5.566,13.879-13.367a11.092,11.092,0,0,0-10.95-11.243,6.456,6.456,0,0,0-2.454.623Zm0,1.648a10.2,10.2,0,0,1,4.028-.916c4.321,0,8.167,3.406,8.167,9.595,0,6.262-2.856,9.814-7.178,9.814a4.971,4.971,0,0,1-4.687-2.966,4.2,4.2,0,0,1-.33-1.831Zm36.4-14.832v1.648c4.211.33,4.688.549,4.688,5.164v21.24c0,4.578-.476,4.907-5.164,5.237V0H130c6.775,0,12.378-1.392,16.589-4.431,4.285-3.149,6.885-7.947,6.885-14.282a15.676,15.676,0,0,0-4.687-11.536c-3.406-3.149-8.752-4.578-15.747-4.578Zm9.814,5.713c0-2.087.183-2.747.7-3.113.586-.366,1.941-.732,4.395-.732a17.339,17.339,0,0,1,9.741,2.49c4.028,2.527,6.189,7.068,6.189,12.6,0,8.423-4.907,15.857-15.125,15.857-4.028,0-5.9-.989-5.9-5.237Zm50.5,23.181a9.053,9.053,0,0,1-6.3,2.673c-3.772,0-7.837-2.93-7.947-9.851,6.3-.22,13.11-.769,14.1-.916.989-.22,1.282-.7,1.282-1.721a8.469,8.469,0,0,0-8.35-8.24h-.037a11.492,11.492,0,0,0-8.2,4.1,13.4,13.4,0,0,0-3.479,9.155C158.24-4.761,162.195.623,168.9.623c1.758,0,5.676-.952,9.192-5.383Zm-8.5-16.04c2.856,0,4.614,2.6,4.614,5.42,0,.7-.33.989-1.282,1.025-3.04.11-5.933.11-8.826.11.769-4.468,3.113-6.555,5.457-6.555Zm37.793-1.392h-9.741v1.428c3.04.4,3.333,1.025,2.527,3.442-1.172,3.442-2.966,8.35-4.724,12.415-1.5-3.516-3.735-9.192-5.09-12.744-.879-2.307-.732-2.673,2.2-3.113v-1.428H179.956v1.428c2.893.476,3.406.916,4.651,3.845,2.6,6.189,5.127,12.231,7.69,18.677h1.538c3.076-7.947,5.969-14.575,7.837-18.494,1.428-3.113,1.9-3.625,4.8-4.028ZM226.135-5.933a9.053,9.053,0,0,1-6.3,2.673c-3.772,0-7.837-2.93-7.947-9.851,6.3-.22,13.11-.769,14.1-.916.989-.22,1.282-.7,1.282-1.721a8.469,8.469,0,0,0-8.35-8.24h-.037a11.492,11.492,0,0,0-8.2,4.1A13.4,13.4,0,0,0,207.2-10.73c0,5.969,3.955,11.353,10.657,11.353,1.758,0,5.676-.952,9.192-5.383Zm-8.5-16.04c2.856,0,4.614,2.6,4.614,5.42,0,.7-.33.989-1.282,1.025-3.04.11-5.933.11-8.826.11.769-4.468,3.113-6.555,5.457-6.555ZM241.736,0V-1.428c-3.552-.33-4.028-.659-4.028-4.285V-38.086a50.221,50.221,0,0,1-8.423,1.868V-34.9c3.369.33,3.735.439,3.735,4.065V-5.713c0,3.589-.476,3.882-3.882,4.285V0Zm14.941-23.987a12.549,12.549,0,0,0-12.341,12.854c0,5.9,4.541,11.755,12.341,11.755,5.53,0,12.122-4.1,12.122-12.744a11.843,11.843,0,0,0-12.085-11.865Zm-.586,1.794c4.578,0,7.141,4.907,7.141,11.316,0,7.507-2.82,9.631-5.969,9.631-4.395,0-7.324-4.944-7.324-11.719,0-6.042,2.93-9.229,6.079-9.229Zm23.8,1.9v-4.248a47.9,47.9,0,0,1-8.276,2.344v1.318c3.259.439,3.552.586,3.552,3.955V7.251c0,3.479-.476,3.845-3.992,4.175v1.465h13.33V11.426c-4.211-.366-4.614-.7-4.614-4.614V-.256a10.082,10.082,0,0,0,3.845.879c7.031-1.318,13.586-6.482,13.586-14.429,0-5.383-3.625-10.181-9.778-10.181a5.975,5.975,0,0,0-2.82.879Zm0,1.831c1.428-1.062,3.552-2.2,5.2-2.2,3.809,0,7.251,3.113,7.251,8.972,0,5.6-2.82,9.668-7.361,9.668A7.966,7.966,0,0,1,279.9-4.1ZM320.728-5.933a9.053,9.053,0,0,1-6.3,2.673c-3.772,0-7.837-2.93-7.947-9.851,6.3-.22,13.11-.769,14.1-.916.989-.22,1.282-.7,1.282-1.721a8.469,8.469,0,0,0-8.35-8.24h-.037a11.492,11.492,0,0,0-8.2,4.1,13.4,13.4,0,0,0-3.479,9.155c0,5.969,3.955,11.353,10.657,11.353,1.758,0,5.676-.952,9.192-5.383Zm-8.5-16.04c2.856,0,4.614,2.6,4.614,5.42,0,.7-.33.989-1.282,1.025-3.04.11-5.933.11-8.826.11.769-4.468,3.113-6.555,5.457-6.555Zm21.2,3.772V-24.17a35.756,35.756,0,0,1-8.057,2.2v1.208c3.04.439,3.333.659,3.333,4.065V-5.6c0,3.516-.476,3.845-3.772,4.175V0h13V-1.428c-4.248-.33-4.5-.659-4.5-4.175v-9.558c1.172-2.856,2.82-4.431,4.211-4.431a3.264,3.264,0,0,1,2.38,1.1,1.335,1.335,0,0,0,1.465.146,3.192,3.192,0,0,0,1.9-2.893,3.093,3.093,0,0,0-3.3-2.747c-2.527,0-4.761,2.856-6.555,5.786Z" transform="translate(189 554)" fill="#707070"/><g transform="translate(156.67 181.445)"><rect width="299" height="210" transform="translate(55.33 23.555)" fill="#fff"/><path d="M398.314,265.543H243.546c-.23,6.158-14.18,7.311-20.084,7.311-51.428-2.09-60.7,1.964-60.543-7.311H10.213A10.243,10.243,0,0,0,0,275.756v10.213c0,22.469,18.384,20.853,40.853,20.853H367.675c22.469,0,40.853,1.616,40.853-20.853V275.756A10.243,10.243,0,0,0,398.314,265.543Zm-30.64-234.9A30.73,30.73,0,0,0,337.035,0H71.492a30.73,30.73,0,0,0-30.64,30.64V259.463H367.675ZM353.39,232.43H55.137V23.313Z" fill="#333"/></g><g transform="translate(65.804 91.471)"><g transform="translate(0 0)"><path d="M47.219.529H12.5V-68.887h7.414V-6.506H47.219Zm56.464,0H96.676a32.014,32.014,0,0,1-.859-8.265Q89.8,1.857,79.452,1.857A12.61,12.61,0,0,1,70.207-2.2a14.261,14.261,0,0,1-4-10.454,15.211,15.211,0,0,1,1.4-6.691,13.061,13.061,0,0,1,4.114-4.9,21.315,21.315,0,0,1,6.6-3.149,46,46,0,0,1,9.222-1.6l7.911-.689v-2.46q0-13.185-11.3-13.185a24.052,24.052,0,0,0-6.758,1.254,33.117,33.117,0,0,0-7.03,2.976L68.512-46.6q9.629-5.362,17.9-5.362,16.094,0,16.094,18.547v22.04A54.423,54.423,0,0,0,103.683.529Zm-8.228-15.2v-9.3a123.506,123.506,0,0,0-13.087,1.746A14.2,14.2,0,0,0,76.219-19.2a7.474,7.474,0,0,0-2.6,6,7.334,7.334,0,0,0,2.215,5.559,7.85,7.85,0,0,0,5.651,2.115,13.483,13.483,0,0,0,7.459-2.435A22.835,22.835,0,0,0,95.455-14.673ZM158.067.529h-7.052V-32.334q0-6.838-2.012-9.913a7,7,0,0,0-6.306-3.075q-6.465,0-13.879,8.757V.529h-7.052V-50.733h7.052v7.527q7.595-8.757,16-8.757,13.246,0,13.246,17.415Zm56.961-25.385H182.7q0,8.708,4.634,14.365a14.179,14.179,0,0,0,11.37,5.658,38.29,38.29,0,0,0,13.246-2.509l1.221,6.149a32.772,32.772,0,0,1-14.557,3.05q-10.488,0-16.907-7.33T175.291-25.25q0-12.2,5.764-19.457a18.161,18.161,0,0,1,14.9-7.256,16.858,16.858,0,0,1,13.607,6.74q5.47,6.74,5.47,17.957ZM207.343-31.1a15.227,15.227,0,0,0-3.436-10.11q-3.436-4.108-7.685-4.108a11.749,11.749,0,0,0-9.064,3.936,16.276,16.276,0,0,0-4,10.282ZM327.051-4.391a27.087,27.087,0,0,1-17.314,6.248q-12.432,0-18.851-9.175t-6.419-26.836q0-17.071,6.216-26.566t19.055-9.495a33.391,33.391,0,0,1,9.132,1.279,21.516,21.516,0,0,1,7.278,3.395l-2.441,6.346a26.08,26.08,0,0,0-13.969-3.936q-8.77,0-13.087,6.986t-4.317,21.991q0,28.927,17.4,28.927,6.555,0,9.9-3v-17.12H308.154v-6.986h18.9ZM381.48.529h-7.007a32.013,32.013,0,0,1-.859-8.265Q367.6,1.857,357.249,1.857A12.61,12.61,0,0,1,348-2.2a14.26,14.26,0,0,1-4-10.454,15.21,15.21,0,0,1,1.4-6.691,13.061,13.061,0,0,1,4.114-4.9,21.314,21.314,0,0,1,6.6-3.149,46,46,0,0,1,9.222-1.6l7.911-.689v-2.46q0-13.185-11.3-13.185a24.052,24.052,0,0,0-6.758,1.254,33.118,33.118,0,0,0-7.03,2.976l-1.853-5.51q9.629-5.362,17.9-5.362,16.094,0,16.094,18.547v22.04A54.422,54.422,0,0,0,381.48.529Zm-8.228-15.2v-9.3a123.5,123.5,0,0,0-13.088,1.746,14.2,14.2,0,0,0-6.148,3.026,7.474,7.474,0,0,0-2.6,6,7.334,7.334,0,0,0,2.215,5.559,7.85,7.85,0,0,0,5.651,2.115,13.483,13.483,0,0,0,7.459-2.435A22.836,22.836,0,0,0,373.253-14.673Zm63.335-34.683-2.848,7.379a19.365,19.365,0,0,0-8.047-2.214,11.06,11.06,0,0,0-6.1,1.943,20.309,20.309,0,0,0-5.493,5.559q-2.509,3.616-2.509,4.059V.529h-7.007V-50.733h7.007v10.38q5.651-11.61,14.647-11.61A22.19,22.19,0,0,1,436.588-49.356ZM491.424.529h-7.052V-32.334q0-6.838-2.012-9.913a7,7,0,0,0-6.306-3.075q-6.465,0-13.879,8.757V.529h-7.052V-50.733h7.052v7.527q7.595-8.757,16-8.757,13.246,0,13.246,17.415Zm56.961-25.385H516.062q0,8.708,4.634,14.365a14.179,14.179,0,0,0,11.37,5.658,38.291,38.291,0,0,0,13.246-2.509l1.221,6.149a32.772,32.772,0,0,1-14.557,3.05q-10.488,0-16.907-7.33T508.648-25.25q0-12.2,5.764-19.457a18.161,18.161,0,0,1,14.9-7.256,16.858,16.858,0,0,1,13.607,6.74q5.47,6.74,5.47,17.957ZM540.7-31.1a15.227,15.227,0,0,0-3.436-10.11q-3.436-4.108-7.685-4.108a11.749,11.749,0,0,0-9.064,3.936,16.276,16.276,0,0,0-4,10.282Zm62.567-18.252-2.848,7.379a19.365,19.365,0,0,0-8.047-2.214,11.06,11.06,0,0,0-6.1,1.943,20.308,20.308,0,0,0-5.493,5.559q-2.509,3.616-2.509,4.059V.529H571.26V-50.733h7.007v10.38q5.651-11.61,14.647-11.61A22.19,22.19,0,0,1,603.266-49.356Z" transform="translate(-12.5 70.215)" fill="#333"/></g></g><g transform="translate(176.331 267.313)"><path d="M339.923,7.143l-71.53,44.332L142.374-16.213,103.616,19.462,0-1.767" transform="translate(0 88.446)" fill="none" stroke="#707070" stroke-width="4"/><path d="M339.923,7.143l-71.53,44.332L142.374-16.213,103.616,19.462,0-1.767" transform="translate(0 70.387)" fill="none" stroke="#707070" stroke-width="4"/><path d="M339.923,7.143l-71.53,44.332L142.374-16.213,103.616,19.462,0-1.767" transform="translate(0 52.329)" fill="none" stroke="#707070" stroke-width="4"/><path d="M339.923,7.143l-71.53,44.332L142.374-16.213,103.616,19.462,0-1.767" transform="translate(0 34.271)" fill="none" stroke="#707070" stroke-width="4"/><path d="M339.923,7.143l-71.53,44.332L142.374-16.213,103.616,19.462,0-1.767" transform="translate(0 16.213)" fill="none" stroke="#707070" stroke-width="4"/></g><g transform="translate(176.331 258.284)"><path d="M339.923,7.143l-71.53,44.332L142.374-16.213,103.616,19.462,0-1.767" transform="translate(0 87.543)" fill="none" stroke="#707070" stroke-width="4"/><path d="M339.923,7.143l-71.53,44.332L142.374-16.213,103.616,19.462,0-1.767" transform="translate(0 69.485)" fill="none" stroke="#707070" stroke-width="4"/><path d="M339.923,7.143l-71.53,44.332L142.374-16.213,103.616,19.462,0-1.767" transform="translate(0 51.878)" fill="none" stroke="#707070" stroke-width="4"/><path d="M339.923,7.143l-71.53,44.332L142.374-16.213,103.616,19.462,0-1.767" transform="translate(0 34.271)" fill="none" stroke="#707070" stroke-width="4"/><path d="M339.923,7.143l-71.53,44.332L142.374-16.213,103.616,19.462,0-1.767" transform="translate(0 16.213)" fill="none" stroke="#707070" stroke-width="4"/></g></g><path d="M0-40,1110,0V619H0Z" transform="translate(0 20)" fill="rgba(255,255,255,0)"/></g></svg>