<svg xmlns="http://www.w3.org/2000/svg" width="489.346" height="367.551" viewBox="0 0 489.346 367.551"><rect width="358" height="251" transform="translate(66.224 27.807)" fill="#fff"/><path d="M477.112,318.075H291.726c-.276,7.376-16.985,8.757-24.057,8.757-61.6-2.5-72.711,2.353-72.52-8.757H12.234A12.27,12.27,0,0,0,0,330.308v12.234c0,26.914,22.021,24.978,48.935,24.978H440.411c26.914,0,48.935,1.936,48.935-24.978V330.308A12.27,12.27,0,0,0,477.112,318.075ZM440.411,36.7A36.809,36.809,0,0,0,403.71,0H85.636a36.809,36.809,0,0,0-36.7,36.7V310.793H440.411ZM423.3,278.412H66.045V27.925Z" fill="#333"/></svg>