<svg xmlns="http://www.w3.org/2000/svg" width="408.625" height="172.345" viewBox="0 0 408.625 172.345"><g transform="translate(0.401 2.435)"><path d="M407.17,11.764l-85.68,53.1L170.54-16.213,124.114,26.519,0,1.091" transform="translate(0 102.735)" fill="none" stroke="#707070" stroke-width="4"/><path d="M407.17,11.764l-85.68,53.1L170.54-16.213,124.114,26.519,0,1.091" transform="translate(0 81.105)" fill="none" stroke="#707070" stroke-width="4"/><path d="M407.17,11.764l-85.68,53.1L170.54-16.213,124.114,26.519,0,1.091" transform="translate(0 59.474)" fill="none" stroke="#707070" stroke-width="4"/><path d="M407.17,11.764l-85.68,53.1L170.54-16.213,124.114,26.519,0,1.091" transform="translate(0 37.844)" fill="none" stroke="#707070" stroke-width="4"/><path d="M407.17,11.764l-85.68,53.1L170.54-16.213,124.114,26.519,0,1.091" transform="translate(0 16.213)" fill="none" stroke="#707070" stroke-width="4"/></g></svg>