<svg xmlns="http://www.w3.org/2000/svg" width="707.636" height="86.33" viewBox="0 0 707.636 86.33"><g transform="translate(0 0)"><path d="M54.087,14.524H12.5V-68.624h8.881V6.1H54.087Zm67.634,0h-8.393a38.346,38.346,0,0,1-1.029-9.9q-7.2,11.491-19.6,11.491a15.1,15.1,0,0,1-11.074-4.862A17.082,17.082,0,0,1,76.831-1.269a18.22,18.22,0,0,1,1.679-8.014,15.644,15.644,0,0,1,4.928-5.863,25.532,25.532,0,0,1,7.906-3.771,55.105,55.105,0,0,1,11.047-1.915l9.476-.825V-24.6q0-15.793-13.538-15.793a28.81,28.81,0,0,0-8.1,1.5,39.669,39.669,0,0,0-8.42,3.565l-2.22-6.6q11.534-6.423,21.444-6.423,19.277,0,19.278,22.216V.264A65.188,65.188,0,0,0,121.721,14.524ZM111.866-3.685V-14.822A147.939,147.939,0,0,0,96.189-12.73a17.014,17.014,0,0,0-7.364,3.624,8.953,8.953,0,0,0-3.114,7.189,8.785,8.785,0,0,0,2.653,6.659,9.4,9.4,0,0,0,6.769,2.534,16.151,16.151,0,0,0,8.935-2.917A27.352,27.352,0,0,0,111.866-3.685Zm75,18.209h-8.447V-24.84q0-8.191-2.41-11.874T168.453-40.4q-7.744,0-16.624,10.489V14.524h-8.447v-61.4h8.447v9.016q9.1-10.489,19.169-10.489,15.866,0,15.866,20.861Zm68.229-30.407H216.376q0,10.43,5.55,17.207T235.545,8.1A45.865,45.865,0,0,0,251.411,5.1l1.462,7.366a39.255,39.255,0,0,1-17.436,3.654q-12.563,0-20.252-8.78T207.5-16.354q0-14.614,6.9-23.306a21.754,21.754,0,0,1,17.843-8.692q9.747,0,16.3,8.073t6.552,21.509Zm-9.206-7.484a18.24,18.24,0,0,0-4.115-12.11q-4.115-4.921-9.206-4.921a14.073,14.073,0,0,0-10.857,4.714q-4.3,4.714-4.792,12.316Zm143.39,32a32.445,32.445,0,0,1-20.74,7.484q-14.891,0-22.581-10.99T338.268-27.02q0-20.448,7.446-31.821t22.824-11.373a40,40,0,0,1,10.938,1.532,25.772,25.772,0,0,1,8.718,4.066l-2.924,7.6a31.24,31.24,0,0,0-16.732-4.714q-10.505,0-15.676,8.368T347.69-27.02q0,34.65,20.848,34.65,7.852,0,11.859-3.595V-16.472H366.643V-24.84h22.635Zm65.2,5.893h-8.393a38.346,38.346,0,0,1-1.029-9.9q-7.2,11.491-19.6,11.491a15.1,15.1,0,0,1-11.074-4.862,17.082,17.082,0,0,1-4.792-12.522,18.219,18.219,0,0,1,1.679-8.014,15.644,15.644,0,0,1,4.928-5.863,25.53,25.53,0,0,1,7.906-3.771,55.1,55.1,0,0,1,11.047-1.915l9.476-.825V-24.6q0-15.793-13.538-15.793a28.81,28.81,0,0,0-8.1,1.5,39.669,39.669,0,0,0-8.42,3.565l-2.22-6.6q11.534-6.423,21.443-6.423,19.278,0,19.278,22.216V.264A65.187,65.187,0,0,0,454.475,14.524ZM444.62-3.685V-14.822a147.936,147.936,0,0,0-15.677,2.092,17.013,17.013,0,0,0-7.364,3.624,8.952,8.952,0,0,0-3.114,7.189,8.785,8.785,0,0,0,2.653,6.659,9.4,9.4,0,0,0,6.769,2.534,16.15,16.15,0,0,0,8.935-2.917A27.353,27.353,0,0,0,444.62-3.685Zm75.864-41.545-3.411,8.839a23.2,23.2,0,0,0-9.639-2.652,13.248,13.248,0,0,0-7.31,2.328,24.328,24.328,0,0,0-6.579,6.659q-3.005,4.331-3.005,4.862V14.524h-8.393v-61.4h8.393v12.434q6.769-13.907,17.545-13.907A26.58,26.58,0,0,1,520.484-45.229Zm65.684,59.753h-8.448V-24.84q0-8.191-2.41-11.874T567.757-40.4q-7.743,0-16.624,10.489V14.524h-8.448v-61.4h8.448v9.016q9.1-10.489,19.169-10.489,15.866,0,15.866,20.861ZM654.4-15.883H615.68q0,10.43,5.55,17.207T634.85,8.1A45.866,45.866,0,0,0,650.716,5.1l1.462,7.366a39.255,39.255,0,0,1-17.436,3.654q-12.563,0-20.252-8.78T606.8-16.354q0-14.614,6.9-23.306a21.754,21.754,0,0,1,17.842-8.692q9.747,0,16.3,8.073T654.4-18.77Zm-9.206-7.484a18.239,18.239,0,0,0-4.116-12.11q-4.115-4.921-9.205-4.921a14.073,14.073,0,0,0-10.857,4.714q-4.305,4.714-4.792,12.316Zm74.944-21.862-3.411,8.839a23.2,23.2,0,0,0-9.639-2.652,13.248,13.248,0,0,0-7.31,2.328,24.325,24.325,0,0,0-6.579,6.659q-3.005,4.331-3.005,4.862V14.524H681.8v-61.4h8.393v12.434q6.769-13.907,17.545-13.907A26.58,26.58,0,0,1,720.136-45.229Z" transform="translate(-12.5 70.215)" fill="#333"/></g></svg>